<svg width="52" height="52" viewBox="0 0 52 52" fill="none" xmlns="http://www.w3.org/2000/svg">
<mask id="mask0_1123_1384" style="mask-type:luminance" maskUnits="userSpaceOnUse" x="0" y="0" width="52" height="52">
<path d="M51.5 0H0V51.5H51.5V0Z" fill="white"/>
</mask>
<g mask="url(#mask0_1123_1384)">
<path d="M21.4994 18.0261C21.4994 19.946 19.943 21.5023 18.0232 21.5023V24.8498C21.7919 24.8498 24.8469 21.7949 24.8469 18.0261H21.4994ZM18.0232 21.5023C16.1033 21.5023 14.5469 19.946 14.5469 18.0261H11.1994C11.1994 21.7949 14.2545 24.8498 18.0232 24.8498V21.5023ZM14.5469 18.0261C14.5469 16.1062 16.1033 14.5498 18.0232 14.5498V11.2023C14.2545 11.2023 11.1994 14.2575 11.1994 18.0261H14.5469ZM18.0232 14.5498C19.943 14.5498 21.4994 16.1062 21.4994 18.0261H24.8469C24.8469 14.2575 21.7919 11.2023 18.0232 11.2023V14.5498ZM7.61919 47.5346C7.61772 47.5361 7.63837 47.516 7.69736 47.462C7.75082 47.4133 7.8222 47.3492 7.9122 47.2691C8.09193 47.1094 8.33478 46.8965 8.63515 46.6349C9.23531 46.1121 10.054 45.4056 11.0331 44.564C12.9909 42.881 15.582 40.6655 18.332 38.3171C23.8288 33.6231 29.9632 28.3969 32.9216 25.8559L30.7403 23.3164C27.7871 25.8536 21.6619 31.0716 16.1582 35.7715C13.4079 38.1199 10.8133 40.3387 8.85104 42.0254C6.93413 43.6731 5.52991 44.8898 5.25214 45.1676L7.61919 47.5346ZM34.0749 25.8562L47.8517 37.3368L49.9946 34.7651L36.2179 23.2845L34.0749 25.8562ZM32.9216 25.8559C33.2471 25.5765 33.7286 25.5675 34.0749 25.8562L36.2179 23.2845C34.6324 21.9633 32.3224 21.9576 30.7403 23.3164L32.9216 25.8559ZM19.0532 4.24985H32.4432V0.902344H19.0532V4.24985ZM47.2494 19.0561V32.4461H50.5969V19.0561H47.2494ZM32.4432 47.2523H19.0532V50.5998H32.4432V47.2523ZM4.24692 32.4461V19.0561H0.899414V32.4461H4.24692ZM19.0532 47.2523C16.1413 47.2523 14.058 47.2511 12.4244 47.1177C10.8104 46.9856 9.78329 46.7332 8.95693 46.3122L7.43719 49.2948C8.81412 49.9963 10.3308 50.3053 12.1519 50.4538C13.9534 50.6011 16.1965 50.5998 19.0532 50.5998V47.2523ZM0.899414 32.4461C0.899414 35.3028 0.898102 37.5459 1.04531 39.3474C1.1941 41.1684 1.50289 42.6851 2.20448 44.0622L5.18712 42.5424C4.76606 41.7158 4.51356 40.6889 4.38169 39.0749C4.24823 37.4413 4.24692 35.3579 4.24692 32.4461H0.899414ZM8.95693 46.3122C7.3338 45.4851 6.01414 44.1654 5.18712 42.5424L2.20448 44.0622C3.35244 46.315 5.18419 48.1469 7.43719 49.2948L8.95693 46.3122ZM47.2494 32.4461C47.2494 35.3579 47.2481 37.4413 47.1147 39.0749C46.9827 40.6889 46.7303 41.7158 46.3093 42.5424L49.2919 44.0622C49.9933 42.6851 50.3023 41.1684 50.4509 39.3474C50.5982 37.5459 50.5969 35.3028 50.5969 32.4461H47.2494ZM32.4432 50.5998C35.2999 50.5998 37.543 50.6011 39.3444 50.4538C41.1655 50.3053 42.6821 49.9963 44.0592 49.2948L42.5395 46.3122C41.7129 46.7332 40.686 46.9856 39.072 47.1177C37.4384 47.2511 35.355 47.2523 32.4432 47.2523V50.5998ZM46.3093 42.5424C45.4822 44.1654 44.1625 45.4851 42.5395 46.3122L44.0592 49.2948C46.3121 48.1469 48.144 46.315 49.2919 44.0622L46.3093 42.5424ZM32.4432 4.24985C35.355 4.24985 37.4384 4.25116 39.072 4.38462C40.686 4.51649 41.7129 4.76899 42.5395 5.19005L44.0592 2.20741C42.6821 1.50582 41.1655 1.19703 39.3444 1.04824C37.543 0.901031 35.2999 0.902344 32.4432 0.902344V4.24985ZM50.5969 19.0561C50.5969 16.1994 50.5982 13.9563 50.4509 12.1548C50.3023 10.3337 49.9933 8.81705 49.2919 7.44012L46.3093 8.95986C46.7303 9.78622 46.9827 10.8133 47.1147 12.4274C47.2481 14.061 47.2494 16.1442 47.2494 19.0561H50.5969ZM42.5395 5.19005C44.1625 6.01707 45.4822 7.33673 46.3093 8.95986L49.2919 7.44012C48.144 5.18712 46.3121 3.35537 44.0592 2.20741L42.5395 5.19005ZM19.0532 0.902344C16.1965 0.902344 13.9534 0.901031 12.1519 1.04824C10.3308 1.19703 8.81412 1.50582 7.43719 2.20741L8.95693 5.19005C9.78329 4.76899 10.8104 4.51649 12.4244 4.38462C14.058 4.25116 16.1413 4.24985 19.0532 4.24985V0.902344ZM4.24692 19.0561C4.24692 16.1442 4.24823 14.061 4.38169 12.4274C4.51356 10.8133 4.76606 9.78622 5.18712 8.95986L2.20448 7.44012C1.50289 8.81705 1.1941 10.3337 1.04531 12.1548C0.898102 13.9563 0.899414 16.1994 0.899414 19.0561H4.24692ZM7.43719 2.20741C5.18419 3.35537 3.35244 5.18712 2.20448 7.44012L5.18712 8.95986C6.01414 7.33673 7.3338 6.01707 8.95693 5.19005L7.43719 2.20741Z" fill="#C3CEC3"/>
</g>
</svg>
